<svg xmlns="http://www.w3.org/2000/svg" version="1.1" xmlns:xlink="http://www.w3.org/1999/xlink" xmlns:svgjs="http://svgjs.dev/svgjs" width="1500" height="1500" viewBox="0 0 1500 1500"><rect width="1500" height="1500" fill="#ffffff"></rect><g transform="matrix(0.6666666666666666,0,0,0.6666666666666666,249.39393939393938,438.5856950067477)"><svg viewBox="0 0 396 247" data-background-color="#ffffff" preserveAspectRatio="xMidYMid meet" height="935" width="1500" xmlns="http://www.w3.org/2000/svg" xmlns:xlink="http://www.w3.org/1999/xlink"><g id="tight-bounds" transform="matrix(1,0,0,1,0.2400000000000091,-0.09999999999999432)"><svg viewBox="0 0 395.52 247.2" height="247.2" width="395.52"><g><svg></svg></g><g><svg viewBox="0 0 395.52 247.2" height="247.2" width="395.52"><g transform="matrix(1,0,0,1,77.00613153638814,47.215199999999996)"><svg viewBox="0 0 241.5077369272237 152.7696" height="152.7696" width="241.5077369272237"><g><svg viewBox="0 0 241.5077369272237 152.7696" height="152.7696" width="241.5077369272237"><g><svg viewBox="0 0 241.5077369272237 152.7696" height="152.7696" width="241.5077369272237"><g><svg viewBox="0 0 241.5077369272237 152.7696" height="152.7696" width="241.5077369272237"><g id="textblocktransform"><svg viewBox="0 0 241.5077369272237 152.7696" height="152.7696" width="241.5077369272237" id="textblock"><g><svg viewBox="0 0 241.5077369272237 152.7696" height="152.7696" width="241.5077369272237"><g transform="matrix(1,0,0,1,0,0)"><svg width="241.5077369272237" viewBox="4 -36.3 58.65 37.099999999999994" height="152.7696" data-palette-color="#0074d9"><path d="M8.4 0L5 0 5-23.4 8.4-23.4 8.4 0ZM6.7-27.95Q5.55-27.95 4.78-28.75 4-29.55 4-30.7L4-30.7Q4-31.8 4.78-32.58 5.55-33.35 6.7-33.35L6.7-33.35Q7.8-33.35 8.6-32.58 9.4-31.8 9.4-30.65L9.4-30.65Q9.4-29.55 8.6-28.75 7.8-27.95 6.7-27.95L6.7-27.95ZM34.9-36.3L38.3-36.3 38.3 0 34.9 0 34.9-3.45Q33.45-1.45 31.35-0.33 29.25 0.8 26.75 0.8L26.75 0.8Q23.4 0.8 20.75-0.8 18.1-2.4 16.6-5.25 15.1-8.1 15.1-11.75L15.1-11.75Q15.1-15.35 16.57-18.18 18.05-21 20.67-22.6 23.3-24.2 26.65-24.2L26.65-24.2Q29.2-24.2 31.32-23.08 33.45-21.95 34.9-19.9L34.9-19.9 34.9-36.3ZM26.65-2.3Q29.05-2.3 30.92-3.5 32.8-4.7 33.85-6.85 34.9-9 34.9-11.7L34.9-11.7Q34.9-14.4 33.85-16.55 32.8-18.7 30.92-19.9 29.05-21.1 26.65-21.1L26.65-21.1Q24.3-21.1 22.45-19.9 20.6-18.7 19.55-16.57 18.5-14.45 18.5-11.75L18.5-11.75Q18.5-9 19.55-6.85 20.6-4.7 22.45-3.5 24.3-2.3 26.65-2.3L26.65-2.3ZM52.85 0.8Q49.45 0.8 46.87-0.65 44.3-2.1 42.95-4.75L42.95-4.75 46-6.25Q47.85-2.3 53.25-2.3L53.25-2.3Q55.85-2.3 57.55-3.25 59.25-4.2 59.25-6.2L59.25-6.2Q59.25-8.25 57.87-9.25 56.5-10.25 53.05-10.55L53.05-10.55Q48.25-10.95 46.17-12.7 44.1-14.45 44.1-17.35L44.1-17.35Q44.1-20.6 46.45-22.4 48.8-24.2 52.9-24.2L52.9-24.2Q59.85-24.2 62.35-18.7L62.35-18.7 59.3-17.2Q58.45-19.2 56.82-20.15 55.2-21.1 52.65-21.1L52.65-21.1Q50.05-21.1 48.67-20.15 47.3-19.2 47.3-17.45L47.3-17.45Q47.3-15.8 48.77-14.78 50.25-13.75 53.85-13.45L53.85-13.45Q58.3-13.05 60.47-11.28 62.65-9.5 62.65-6.6L62.65-6.6Q62.65-4.25 61.3-2.58 59.95-0.9 57.7-0.05 55.45 0.8 52.85 0.8L52.85 0.8Z" opacity="1" transform="matrix(1,0,0,1,0,0)" fill="#000000" class="wordmark-text-0" data-fill-palette-color="primary" id="text-0"></path></svg></g></svg></g></svg></g></svg></g></svg></g></svg></g></svg></g><g><path d="M0 123.6c0-68.262 55.338-123.6 123.6-123.6 30.402 0 58.24 10.976 79.768 29.183l-11.147 0c-19.26-14.022-42.974-22.294-68.621-22.295-64.458 0-116.712 52.254-116.712 116.712 0 64.458 52.254 116.712 116.712 116.712 25.647 0 49.361-8.272 68.621-22.295l11.147 0c-21.528 18.206-49.366 29.183-79.768 29.183-68.262 0-123.6-55.338-123.6-123.6z" fill="#000000" stroke="transparent" data-fill-palette-color="tertiary"></path></g></svg></g><defs></defs></svg><rect width="395.52" height="247.2" fill="none" stroke="none" visibility="hidden"></rect></g></svg></g></svg>